<svg xmlns="http://www.w3.org/2000/svg" width="900" height="463" viewBox="0 0 900 463" role="img" aria-labelledby="title desc">
<title id="title">Variação em 7 dias: Momentum de Icons no EA FC em 19/06 — PS</title>
<desc id="desc">Gráfico gerado a partir da tabela publicada neste artigo.</desc>
<rect width="100%" height="100%" rx="20" fill="#0f172a"/>
<text x="28" y="42" fill="#f8fafc" font-family="system-ui,sans-serif" font-size="23" font-weight="700">Variação em 7 dias</text>
<text x="28" y="70" fill="#94a3b8" font-family="system-ui,sans-serif" font-size="15">Dados do recorte publicado no artigo</text>
<text x="28" y="117" fill="#e2e8f0" font-family="system-ui,sans-serif" font-size="16">Paul Scholes</text>
<rect x="285" y="95" width="480" height="28" rx="7" fill="#22c55e"/>
<text x="775" y="116" fill="#f8fafc" font-family="system-ui,sans-serif" font-size="15" font-weight="700">+47.9%</text>
<text x="28" y="175" fill="#e2e8f0" font-family="system-ui,sans-serif" font-size="16">Juan Román Riquelme</text>
<rect x="285" y="153" width="392" height="28" rx="7" fill="#22c55e"/>
<text x="687" y="174" fill="#f8fafc" font-family="system-ui,sans-serif" font-size="15" font-weight="700">+39.1%</text>
<text x="28" y="233" fill="#e2e8f0" font-family="system-ui,sans-serif" font-size="16">Bastian Schweinsteiger</text>
<rect x="285" y="211" width="326" height="28" rx="7" fill="#22c55e"/>
<text x="621" y="232" fill="#f8fafc" font-family="system-ui,sans-serif" font-size="15" font-weight="700">+32.5%</text>
<text x="28" y="291" fill="#e2e8f0" font-family="system-ui,sans-serif" font-size="16">Emmanuel Petit</text>
<rect x="285" y="269" width="311" height="28" rx="7" fill="#22c55e"/>
<text x="606" y="290" fill="#f8fafc" font-family="system-ui,sans-serif" font-size="15" font-weight="700">+31.0%</text>
<text x="28" y="349" fill="#e2e8f0" font-family="system-ui,sans-serif" font-size="16">Steven Gerrard</text>
<rect x="285" y="327" width="272" height="28" rx="7" fill="#22c55e"/>
<text x="567" y="348" fill="#f8fafc" font-family="system-ui,sans-serif" font-size="15" font-weight="700">+27.1%</text>
<text x="28" y="407" fill="#e2e8f0" font-family="system-ui,sans-serif" font-size="16">Dunga</text>
<rect x="285" y="385" width="265" height="28" rx="7" fill="#22c55e"/>
<text x="560" y="406" fill="#f8fafc" font-family="system-ui,sans-serif" font-size="15" font-weight="700">+26.4%</text>
</svg>
