<svg xmlns="http://www.w3.org/2000/svg" width="900" height="463" viewBox="0 0 900 463" role="img" aria-labelledby="title desc">
<title id="title">Variação em 7 dias: Momentum de Icons no EA FC em 18/06 — PC</title>
<desc id="desc">Gráfico gerado a partir da tabela publicada neste artigo.</desc>
<rect width="100%" height="100%" rx="20" fill="#0f172a"/>
<text x="28" y="42" fill="#f8fafc" font-family="system-ui,sans-serif" font-size="23" font-weight="700">Variação em 7 dias</text>
<text x="28" y="70" fill="#94a3b8" font-family="system-ui,sans-serif" font-size="15">Dados do recorte publicado no artigo</text>
<text x="28" y="117" fill="#e2e8f0" font-family="system-ui,sans-serif" font-size="16">Cha Bum Kun</text>
<rect x="285" y="95" width="480" height="28" rx="7" fill="#22c55e"/>
<text x="775" y="116" fill="#f8fafc" font-family="system-ui,sans-serif" font-size="15" font-weight="700">+71.4%</text>
<text x="28" y="175" fill="#e2e8f0" font-family="system-ui,sans-serif" font-size="16">Camille Abily</text>
<rect x="285" y="153" width="445" height="28" rx="7" fill="#22c55e"/>
<text x="740" y="174" fill="#f8fafc" font-family="system-ui,sans-serif" font-size="15" font-weight="700">+66.2%</text>
<text x="28" y="233" fill="#e2e8f0" font-family="system-ui,sans-serif" font-size="16">Cha Bum Kun</text>
<rect x="285" y="211" width="407" height="28" rx="7" fill="#22c55e"/>
<text x="702" y="232" fill="#f8fafc" font-family="system-ui,sans-serif" font-size="15" font-weight="700">+60.5%</text>
<text x="28" y="291" fill="#e2e8f0" font-family="system-ui,sans-serif" font-size="16">Robin van Persie</text>
<rect x="285" y="269" width="398" height="28" rx="7" fill="#22c55e"/>
<text x="693" y="290" fill="#f8fafc" font-family="system-ui,sans-serif" font-size="15" font-weight="700">+59.2%</text>
<text x="28" y="349" fill="#e2e8f0" font-family="system-ui,sans-serif" font-size="16">Kaká</text>
<rect x="285" y="327" width="374" height="28" rx="7" fill="#22c55e"/>
<text x="669" y="348" fill="#f8fafc" font-family="system-ui,sans-serif" font-size="15" font-weight="700">+55.6%</text>
<text x="28" y="407" fill="#e2e8f0" font-family="system-ui,sans-serif" font-size="16">Wayne Rooney</text>
<rect x="285" y="385" width="269" height="28" rx="7" fill="#22c55e"/>
<text x="564" y="406" fill="#f8fafc" font-family="system-ui,sans-serif" font-size="15" font-weight="700">+40.0%</text>
</svg>
