<svg xmlns="http://www.w3.org/2000/svg" width="900" height="463" viewBox="0 0 900 463" role="img" aria-labelledby="title desc">
<title id="title">Variação em 24h: Icons no EA FC em 31/05: altas e baixas — PC</title>
<desc id="desc">Gráfico gerado a partir da tabela publicada neste artigo.</desc>
<rect width="100%" height="100%" rx="20" fill="#0f172a"/>
<text x="28" y="42" fill="#f8fafc" font-family="system-ui,sans-serif" font-size="23" font-weight="700">Variação em 24h</text>
<text x="28" y="70" fill="#94a3b8" font-family="system-ui,sans-serif" font-size="15">Dados do recorte publicado no artigo</text>
<text x="28" y="117" fill="#e2e8f0" font-family="system-ui,sans-serif" font-size="16">Zico</text>
<rect x="285" y="95" width="480" height="28" rx="7" fill="#22c55e"/>
<text x="775" y="116" fill="#f8fafc" font-family="system-ui,sans-serif" font-size="15" font-weight="700">+47.4%</text>
<text x="28" y="175" fill="#e2e8f0" font-family="system-ui,sans-serif" font-size="16">Xavi</text>
<rect x="285" y="153" width="406" height="28" rx="7" fill="#22c55e"/>
<text x="701" y="174" fill="#f8fafc" font-family="system-ui,sans-serif" font-size="15" font-weight="700">+40.1%</text>
<text x="28" y="233" fill="#e2e8f0" font-family="system-ui,sans-serif" font-size="16">Lotta Schelin</text>
<rect x="285" y="211" width="325" height="28" rx="7" fill="#22c55e"/>
<text x="620" y="232" fill="#f8fafc" font-family="system-ui,sans-serif" font-size="15" font-weight="700">+32.1%</text>
<text x="28" y="291" fill="#e2e8f0" font-family="system-ui,sans-serif" font-size="16">Marcelo</text>
<rect x="285" y="269" width="322" height="28" rx="7" fill="#22c55e"/>
<text x="617" y="290" fill="#f8fafc" font-family="system-ui,sans-serif" font-size="15" font-weight="700">+31.8%</text>
<text x="28" y="349" fill="#e2e8f0" font-family="system-ui,sans-serif" font-size="16">Zlatan Ibrahimović</text>
<rect x="285" y="327" width="316" height="28" rx="7" fill="#22c55e"/>
<text x="611" y="348" fill="#f8fafc" font-family="system-ui,sans-serif" font-size="15" font-weight="700">+31.2%</text>
<text x="28" y="407" fill="#e2e8f0" font-family="system-ui,sans-serif" font-size="16">Toni Kroos</text>
<rect x="285" y="385" width="315" height="28" rx="7" fill="#22c55e"/>
<text x="610" y="406" fill="#f8fafc" font-family="system-ui,sans-serif" font-size="15" font-weight="700">+31.1%</text>
</svg>
